<svg width="16" height="13" viewBox="0 0 16 13" fill="none" xmlns="http://www.w3.org/2000/svg">
<path d="M1.33337 5.25C0.643018 5.25 0.083374 5.80964 0.083374 6.5C0.0833741 7.19036 0.643018 7.75 1.33337 7.75H11.6489L8.78282 10.6161C8.29467 11.1043 8.29467 11.8957 8.78282 12.3839C9.27098 12.872 10.0624 12.872 10.5506 12.3839L15.5506 7.38388C15.785 7.14946 15.9167 6.83152 15.9167 6.5C15.9167 6.16848 15.785 5.85054 15.5506 5.61612L10.5506 0.616116C10.0624 0.127961 9.27098 0.127961 8.78282 0.616116C8.29467 1.10427 8.29467 1.89573 8.78282 2.38388L11.6489 5.25H1.33337Z" fill="#F2931D"/>
</svg>
