<svg width="16" height="13" viewBox="0 0 16 13" fill="none" xmlns="http://www.w3.org/2000/svg">
<path d="M14.6666 7.75C15.357 7.75 15.9166 7.19036 15.9166 6.5C15.9166 5.80964 15.357 5.25 14.6666 5.25L4.35106 5.25L7.21718 2.38388C7.70533 1.89573 7.70533 1.10427 7.21718 0.616117C6.72902 0.127961 5.93756 0.127961 5.44941 0.616117L0.44941 5.61612C0.214989 5.85054 0.083293 6.16848 0.083293 6.5C0.083293 6.83152 0.214989 7.14946 0.44941 7.38388L5.44941 12.3839C5.93756 12.872 6.72902 12.872 7.21718 12.3839C7.70533 11.8957 7.70533 11.1043 7.21718 10.6161L4.35106 7.75L14.6666 7.75Z" fill="#989898"/>
</svg>
