<svg width="98" height="98" viewBox="0 0 98 98" fill="none" xmlns="http://www.w3.org/2000/svg">
<path opacity="0.5" d="M40.1111 85H57.8889C70.373 85 76.6151 85 81.099 82.0584C83.0402 80.7849 84.7069 79.1486 86.0039 77.2427C89 72.8402 89 66.7117 89 54.4545C89 42.1974 89 36.0689 86.0039 31.6664C84.7069 29.7605 83.0402 28.1242 81.099 26.8507C78.2178 24.9605 74.6107 24.2849 69.088 24.0434C66.4526 24.0434 64.1835 22.0827 63.6667 19.5455C62.8914 15.7396 59.4878 13 55.5346 13H42.4654C38.5122 13 35.1086 15.7396 34.3333 19.5455C33.8165 22.0827 31.5474 24.0434 28.912 24.0434C23.3893 24.2849 19.7822 24.9605 16.901 26.8507C14.9598 28.1242 13.2931 29.7605 11.9961 31.6664C9 36.0689 9 42.1974 9 54.4545C9 66.7117 9 72.8402 11.9961 77.2427C13.2931 79.1486 14.9598 80.7849 16.901 82.0584C21.3849 85 27.627 85 40.1111 85Z" fill="#F2931D"/>
<path d="M71.1667 38C69.3126 38 67.8095 39.4775 67.8095 41.3C67.8095 43.1225 69.3126 44.6 71.1667 44.6H75.6429C77.497 44.6 79 43.1225 79 41.3C79 39.4775 77.497 38 75.6429 38H71.1667Z" fill="#F2931D"/>
<path fill-rule="evenodd" clip-rule="evenodd" d="M48.7857 38C39.5152 38 32 45.3873 32 54.5C32 63.6127 39.5152 71 48.7857 71C58.0562 71 65.5714 63.6127 65.5714 54.5C65.5714 45.3873 58.0562 38 48.7857 38ZM48.7857 44.6C43.2234 44.6 38.7143 49.0324 38.7143 54.5C38.7143 59.9676 43.2234 64.4 48.7857 64.4C54.348 64.4 58.8571 59.9676 58.8571 54.5C58.8571 49.0324 54.348 44.6 48.7857 44.6Z" fill="#F2931D"/>
</svg>
