<svg width="98" height="98" viewBox="0 0 98 98" fill="none" xmlns="http://www.w3.org/2000/svg">
<path opacity="0.5" d="M32.9996 9.00001C32.5658 8.99994 32.2281 8.99988 31.9086 9.02013C27.8555 9.27701 24.3064 11.954 22.7918 15.8966C22.6697 16.2143 22.5612 16.5541 22.4162 17.0095C22.0976 17.9068 21.3666 18.9273 20.3429 19.7428C20.2289 19.8336 20.1145 19.9193 20 20L27.4225 19.9993C27.5328 19.7611 27.6345 19.5189 27.7268 19.273L27.7327 19.2591L27.7487 19.2194L27.7673 19.171L27.7848 19.1231L27.7987 19.0833L27.8055 19.0633L27.8217 19.0143L27.8364 18.9691L27.8444 18.9441L27.8548 18.9107L27.8634 18.8826L27.8702 18.8595C28.0186 18.3943 28.0671 18.2493 28.1112 18.1345C28.7996 16.3424 30.4129 15.1256 32.2552 15.0088C32.3785 15.001 32.5296 14.9996 33.0777 14.9996H43.9237C44.4717 14.9996 44.6229 15.001 44.7462 15.0088C46.5885 15.1256 48.2017 16.3424 48.8902 18.1345C48.9336 18.2476 48.9798 18.3873 49.1303 18.8593L49.137 18.8822L49.1456 18.9105L49.1561 18.9439L49.1641 18.969L49.1787 19.014L49.1949 19.0629L49.2017 19.0829L49.2155 19.1226L49.2329 19.1702L49.2514 19.2182L49.2671 19.2573L49.2732 19.2718C49.3656 19.5181 49.4675 19.7607 49.578 19.9993L57 20C56.8856 19.9193 56.7713 19.8336 56.6574 19.7429C55.634 18.9276 54.903 17.9071 54.5844 17.0097L54.5728 16.9734C54.4357 16.5428 54.3289 16.2073 54.2096 15.8966C52.695 11.954 49.1458 9.27701 45.0928 9.02013C44.7733 8.99988 44.4356 8.99994 44.0017 9.00001H32.9996Z" fill="#F2931D"/>
<path fill-rule="evenodd" clip-rule="evenodd" d="M58.4905 20H18.5095C12.0131 20 8.76485 20 6.2858 21.2615C4.12883 22.3591 2.37388 24.1032 1.2694 26.2468C0 28.7104 0 31.9384 0 38.3945C0 40.0358 0 40.8564 0.282453 41.5483C0.529113 42.1524 0.92704 42.6839 1.43847 43.0923C2.02411 43.56 2.81505 43.7958 4.39693 44.2674L25.025 50.4174V55.0573C25.025 57.9866 26.7936 60.6869 29.5943 61.8177L31.7507 62.6884C36.0818 64.4372 40.9182 64.4372 45.2493 62.6884L47.4057 61.8177C50.2064 60.6869 51.975 57.9866 51.975 55.0573V50.4174L72.6031 44.2674C74.1849 43.7958 74.9759 43.56 75.5615 43.0923C76.073 42.6839 76.4709 42.1524 76.7175 41.5483C77 40.8564 77 40.0358 77 38.3945C77 31.9384 77 28.7104 75.7306 26.2468C74.6261 24.1032 72.8712 22.3591 70.7142 21.2615C68.2351 20 64.9869 20 58.4905 20ZM44.66 46.7826H32.34C31.4895 46.7826 30.8 47.4786 30.8 48.3371V55.0573C30.8 55.693 31.1834 56.2646 31.7681 56.5007L33.9245 57.3714C36.8617 58.5574 40.1383 58.5574 43.0755 57.3714L45.2319 56.5007C45.8166 56.2646 46.2 55.693 46.2 55.0573V48.3371C46.2 47.4786 45.5105 46.7826 44.66 46.7826Z" fill="#F2931D"/>
<path opacity="0.5" d="M4 44C4.17041 44.0516 4.35158 44.106 4.54457 44.1638L25.0834 50.3229V54.9696C25.0834 57.9031 26.8444 60.6074 29.6329 61.7399L31.78 62.6119C36.0923 64.3632 40.9079 64.3632 45.2202 62.6119L47.3673 61.7399C50.1558 60.6074 51.9168 57.9031 51.9168 54.9696V50.3229L72.4556 44.1638C72.6485 44.106 72.8296 44.0517 73 44.0001V47.832C72.9966 61.9147 72.8663 76.1407 67.9477 80.5109C62.8952 85 54.7635 85 38.5 85C22.2365 85 14.1048 85 9.05233 80.5109C4.13374 76.1407 4.00345 61.9147 4 47.832V44Z" fill="#F2931D"/>
</svg>
