<svg width="98" height="98" viewBox="0 0 98 98" fill="none" xmlns="http://www.w3.org/2000/svg">
<path opacity="0.5" d="M49 65.7669L33.537 81.7862C31.3226 84.0804 30.2153 85.2275 29.2776 85.6244C27.1409 86.5289 24.7707 85.7548 23.6467 83.7854C23.1535 82.9211 22.9998 81.3623 22.6924 78.2445C22.5188 76.4841 22.432 75.604 22.1686 74.8668C21.5788 73.2164 20.3396 71.9326 18.7465 71.3216C18.0349 71.0487 17.1853 70.9588 15.4862 70.779L15.4861 70.779C12.4767 70.4605 10.9719 70.3013 10.1377 69.7903C8.23664 68.6258 7.48945 66.1704 8.36256 63.9568C8.74571 62.9853 9.85295 61.8382 12.0674 59.5441L22.1686 49.0795L27.2452 44L49 65.7669L70.7548 44L75.8314 49.0795L85.9326 59.5441C88.147 61.8383 89.2543 62.9853 89.6374 63.9568C90.5105 66.1704 89.7634 68.6258 87.8623 69.7903C87.0281 70.3013 85.5233 70.4605 82.5138 70.779C80.8147 70.9588 79.9651 71.0487 79.2535 71.3216C77.6604 71.9326 76.4212 73.2164 75.8314 74.8668C75.568 75.604 75.4812 76.4841 75.3077 78.2443L75.3076 78.2445C75.0002 81.3623 74.8465 82.9212 74.3533 83.7854C73.2293 85.7548 70.8591 86.5289 68.7224 85.6244C67.7847 85.2275 66.6774 84.0804 64.463 81.7862L49 65.7669Z" fill="#F2931D"/>
<path fill-rule="evenodd" clip-rule="evenodd" d="M48.5 65C64.2401 65 77 52.2401 77 36.5C77 20.7599 64.2401 8 48.5 8C32.7599 8 20 20.7599 20 36.5C20 52.2401 32.7599 65 48.5 65ZM48.5 24.2857C47.3435 24.2857 46.5699 25.6734 45.0228 28.4488L44.6225 29.1668C44.1829 29.9555 43.9631 30.3498 43.6203 30.61C43.2776 30.8702 42.8507 30.9668 41.997 31.16L41.2197 31.3358C38.2154 32.0156 36.7132 32.3555 36.3559 33.5047C35.9985 34.654 37.0225 35.8515 39.0707 38.2466L39.6006 38.8662C40.1826 39.5468 40.4736 39.8871 40.6045 40.3081C40.7354 40.7291 40.6914 41.1831 40.6034 42.0912L40.5233 42.9179C40.2137 46.1134 40.0589 47.7111 40.9945 48.4214C41.9302 49.1317 43.3366 48.4841 46.1496 47.1889L46.8773 46.8539C47.6767 46.4858 48.0763 46.3018 48.5 46.3018C48.9237 46.3018 49.3233 46.4858 50.1227 46.8539L50.8504 47.1889C53.6634 48.4841 55.0699 49.1317 56.0055 48.4214C56.9411 47.7111 56.7863 46.1134 56.4767 42.9179L56.3966 42.0912C56.3086 41.1831 56.2646 40.7291 56.3955 40.3081C56.5264 39.8871 56.8174 39.5468 57.3994 38.8662L57.9293 38.2466C59.9774 35.8515 61.0015 34.654 60.6442 33.5047C60.2868 32.3555 58.7846 32.0156 55.7803 31.3358L55.003 31.16C54.1493 30.9668 53.7224 30.8702 53.3797 30.61C53.0369 30.3498 52.8171 29.9555 52.3775 29.1668L51.9772 28.4488C50.4301 25.6734 49.6565 24.2857 48.5 24.2857Z" fill="#F2931D"/>
</svg>
